<svg xmlns="http://www.w3.org/2000/svg" xmlns:xlink="http://www.w3.org/1999/xlink" width="1587" zoomAndPan="magnify" viewBox="0 0 1190.25 1683.749949" height="2245" preserveAspectRatio="xMidYMid meet" version="1.2"><defs><clipPath id="410025c945"><path d="M 649 643 L 832.890625 643 L 832.890625 707 L 649 707 Z M 649 643 "/></clipPath></defs><g id="a0d916b12b"><path style=" stroke:none;fill-rule:nonzero;fill:#819c79;fill-opacity:1;" d="M 532.957031 1162.9375 C 515.800781 1134.640625 515.789062 1100.144531 517.882812 1068.164062 C 520.257812 1031.902344 527.636719 996.535156 538.523438 961.894531 C 560.386719 892.34375 595.546875 828.273438 627.117188 762.878906 C 647.375 720.910156 666.054688 677.941406 678.007812 632.792969 C 678.609375 630.523438 675.105469 629.5625 674.503906 631.828125 C 656.078125 701.4375 621.796875 765.148438 590.21875 829.402344 C 558.050781 894.859375 528.199219 962.804688 517.53125 1035.507812 C 514.316406 1057.40625 512.714844 1079.964844 513.480469 1102.097656 C 514.234375 1123.867188 518.398438 1145.933594 529.820312 1164.769531 C 531.03125 1166.773438 534.171875 1164.949219 532.957031 1162.9375 Z M 532.957031 1162.9375 "/><path style=" stroke:none;fill-rule:nonzero;fill:#819c79;fill-opacity:1;" d="M 515.042969 1084.660156 C 517.386719 1084.660156 517.386719 1081.027344 515.042969 1081.027344 C 512.699219 1081.027344 512.699219 1084.660156 515.042969 1084.660156 Z M 515.042969 1084.660156 "/><path style=" stroke:none;fill-rule:nonzero;fill:#819c79;fill-opacity:1;" d="M 675.265625 631.597656 C 671.058594 626.625 671.058594 616.675781 671.058594 610.753906 C 670.808594 599.859375 674.027344 589.671875 678.238281 579.722656 C 682.941406 567.40625 689.382812 555.5625 696.5625 544.429688 C 701.765625 535.902344 706.46875 526.902344 712.660156 519.082031 C 713.402344 543.957031 708.449219 569.300781 698.050781 592.277344 C 691.609375 606.253906 683.6875 619.992188 677.742188 633.96875 "/><path style=" stroke:none;fill-rule:nonzero;fill:#819c79;fill-opacity:1;" d="M 676.550781 630.316406 C 671.777344 624.261719 672.597656 613.6875 672.953125 606.433594 C 673.472656 595.8125 677.628906 585.820312 681.621094 576.117188 C 685.777344 566.027344 691.132812 556.429688 696.941406 547.207031 C 702.585938 538.25 707.40625 528.738281 713.945312 520.367188 C 712.910156 519.941406 711.875 519.511719 710.84375 519.082031 C 711.363281 538.675781 708.4375 558.136719 702.230469 576.726562 C 695.65625 596.417969 684.328125 614.03125 676.171875 633.050781 C 675.261719 635.179688 678.390625 637.03125 679.3125 634.882812 C 687.457031 615.890625 698.566406 598.28125 705.386719 578.710938 C 712.035156 559.632812 715.011719 539.261719 714.476562 519.082031 C 714.4375 517.660156 712.414062 516.46875 711.375 517.800781 C 704.414062 526.710938 699.222656 536.769531 693.214844 546.308594 C 687.03125 556.128906 681.628906 566.425781 677.285156 577.191406 C 673.046875 587.707031 669.324219 598.191406 669.226562 609.664062 C 669.160156 617.375 668.960938 626.519531 673.980469 632.882812 C 675.433594 634.722656 677.984375 632.132812 676.550781 630.316406 Z M 676.550781 630.316406 "/><path style=" stroke:none;fill-rule:nonzero;fill:#819c79;fill-opacity:1;" d="M 677.742188 634.679688 C 676.007812 636.808594 674.523438 639.179688 673.78125 641.785156 "/><path style=" stroke:none;fill-rule:nonzero;fill:#819c79;fill-opacity:1;" d="M 676.457031 633.394531 C 674.535156 635.796875 672.925781 638.339844 672.027344 641.300781 C 671.347656 643.550781 674.855469 644.503906 675.53125 642.269531 C 676.242188 639.933594 677.511719 637.855469 679.027344 635.960938 C 680.476562 634.152344 677.921875 631.566406 676.457031 633.394531 Z M 676.457031 633.394531 "/><path style=" stroke:none;fill-rule:nonzero;fill:#819c79;fill-opacity:1;" d="M 669.324219 664.523438 C 673.78125 660.734375 679.722656 657.890625 684.183594 654.101562 C 687.648438 651.261719 688.640625 647.941406 691.609375 644.152344 C 700.527344 632.308594 712.910156 622.835938 725.289062 613.832031 C 750.054688 595.832031 779.769531 584.933594 806.023438 568.828125 C 791.660156 580.199219 783.734375 597.726562 772.34375 611.464844 C 759.464844 626.152344 746.09375 637.046875 727.269531 643.679688 C 715.386719 647.941406 702.507812 649.839844 690.621094 653.628906 C 680.714844 656.945312 674.277344 665 665.359375 668.789062 "/><path style=" stroke:none;fill-rule:nonzero;fill:#819c79;fill-opacity:1;" d="M 670.609375 665.808594 C 675.78125 661.542969 682.132812 658.808594 686.90625 654.039062 C 688.980469 651.96875 690.335938 649.210938 691.933594 646.785156 C 693.898438 643.796875 696.355469 641.078125 698.769531 638.449219 C 708.449219 627.933594 720.363281 619.152344 732.207031 611.234375 C 755.855469 595.417969 782.691406 585.195312 806.9375 570.394531 C 806.203125 569.445312 805.46875 568.492188 804.738281 567.542969 C 793.492188 576.59375 786.105469 589.125 778.023438 600.851562 C 769.707031 612.910156 759.296875 623.679688 747.089844 631.839844 C 733.890625 640.660156 718.9375 644.5625 703.691406 648.21875 C 696.289062 649.992188 688.824219 651.664062 682.25 655.648438 C 676.171875 659.332031 671 664.316406 664.441406 667.21875 C 662.304688 668.167969 664.15625 671.296875 666.277344 670.355469 C 672.53125 667.582031 677.636719 662.972656 683.320312 659.265625 C 690.328125 654.691406 698.75 653.128906 706.773438 651.214844 C 721.980469 647.585938 736.554688 643.242188 749.667969 634.476562 C 761.320312 626.6875 771.414062 616.355469 779.542969 604.988281 C 788.210938 592.867188 795.519531 579.597656 807.304688 570.109375 C 808.933594 568.796875 806.832031 566.203125 805.105469 567.257812 C 780.550781 582.246094 753.457031 592.65625 729.503906 608.675781 C 717.945312 616.40625 706.535156 625.082031 696.902344 635.136719 C 694.6875 637.445312 692.59375 639.886719 690.65625 642.429688 C 688.609375 645.113281 687.046875 648.136719 684.957031 650.773438 C 680.6875 656.148438 673.289062 658.910156 668.039062 663.238281 C 666.230469 664.730469 668.816406 667.285156 670.609375 665.808594 Z M 670.609375 665.808594 "/><path style=" stroke:none;fill-rule:nonzero;fill:#819c79;fill-opacity:1;" d="M 651.558594 704.390625 C 680.285156 696.335938 709.933594 674.472656 737.671875 664.523438 C 766.894531 654.101562 800.078125 652.679688 830.289062 645.574219 C 814.441406 651.734375 802.058594 664.523438 786.207031 671.15625 C 769.863281 678.261719 753.023438 683 735.6875 686.316406 C 723.308594 688.6875 710.925781 691.527344 698.542969 694.371094 C 689.132812 696.738281 679.460938 695.734375 671.042969 697.152344 "/><g clip-rule="nonzero" clip-path="url(#410025c945)"><path style=" stroke:none;fill-rule:nonzero;fill:#819c79;fill-opacity:1;" d="M 652.042969 706.140625 C 681.769531 697.65625 706.824219 678.378906 735.464844 667.273438 C 765.878906 655.480469 799.242188 654.667969 830.773438 647.328125 C 830.449219 646.160156 830.128906 644.992188 829.804688 643.824219 C 818.019531 648.519531 808.132812 656.453125 797.472656 663.144531 C 785.34375 670.757812 771.386719 675.4375 757.675781 679.316406 C 743.257812 683.398438 728.433594 685.792969 713.820312 689.039062 C 706.246094 690.722656 698.636719 692.992188 690.914062 693.847656 C 684.140625 694.597656 677.308594 694.34375 670.558594 695.402344 C 668.25 695.765625 669.234375 699.265625 671.523438 698.90625 C 678.296875 697.839844 685.199219 698.113281 692.003906 697.359375 C 699.300781 696.550781 706.507812 694.394531 713.660156 692.792969 C 728.289062 689.511719 743.113281 687.070312 757.582031 683.113281 C 771 679.445312 784.726562 674.847656 796.785156 667.808594 C 808.214844 661.140625 818.363281 652.265625 830.769531 647.324219 C 832.90625 646.476562 832.136719 643.28125 829.804688 643.824219 C 798.523438 651.105469 765.707031 652.171875 735.394531 663.429688 C 706.277344 674.246094 681.117188 694.0625 651.074219 702.636719 C 648.828125 703.28125 649.785156 706.785156 652.042969 706.140625 Z M 652.042969 706.140625 "/></g><path style=" stroke:none;fill-rule:nonzero;fill:#819c79;fill-opacity:1;" d="M 638.613281 731.714844 C 637.601562 720.34375 627.144531 709.058594 621.746094 701.476562 C 614.996094 692 607.910156 682.527344 603.1875 670.683594 C 593.0625 646.523438 584.292969 617.625 570.457031 596.777344 C 593.0625 610.515625 612.632812 641.308594 625.117188 670.210938 C 629.839844 680.632812 630.179688 691.527344 632.542969 702.898438 C 634.566406 711.898438 637.601562 719.003906 638.617188 728.480469 "/><path style=" stroke:none;fill-rule:nonzero;fill:#819c79;fill-opacity:1;" d="M 640.113281 731.714844 C 638.832031 720.066406 630.628906 710.941406 623.90625 701.914062 C 615.871094 691.121094 608.640625 680.058594 603.511719 667.582031 C 593.628906 643.527344 586.15625 617.925781 571.753906 596.023438 C 571.070312 596.707031 570.382812 597.390625 569.699219 598.074219 C 590.097656 610.644531 604.238281 632.277344 615.234375 653.015625 C 618.191406 658.589844 620.898438 664.292969 623.433594 670.070312 C 626.199219 676.371094 627.683594 682.90625 628.789062 689.675781 C 629.867188 696.273438 630.839844 702.820312 632.621094 709.277344 C 634.378906 715.640625 636.351562 721.898438 637.113281 728.480469 C 637.335938 730.378906 640.335938 730.398438 640.113281 728.480469 C 639.394531 722.292969 637.769531 716.367188 636.054688 710.394531 C 634.113281 703.644531 632.9375 696.839844 631.847656 689.90625 C 630.804688 683.285156 629.558594 676.605469 626.84375 670.429688 C 624.164062 664.332031 621.367188 658.308594 618.292969 652.394531 C 607.105469 630.871094 592.277344 608.464844 571.214844 595.484375 C 569.960938 594.710938 568.328125 596.269531 569.164062 597.535156 C 583.234375 618.933594 590.699219 643.914062 600.25 667.46875 C 605.140625 679.53125 611.738281 690.050781 619.289062 700.609375 C 626.027344 710.035156 635.789062 719.664062 637.117188 731.714844 C 637.324219 733.613281 640.324219 733.632812 640.113281 731.714844 Z M 640.113281 731.714844 "/><path style=" stroke:none;fill-rule:nonzero;fill:#819c79;fill-opacity:1;" d="M 615.050781 781.308594 C 616.476562 767.734375 608.886719 756.277344 600.683594 749.066406 C 590.339844 739.734375 581.066406 730.402344 573.21875 718.527344 C 564.660156 706.652344 564.304688 694.351562 560.738281 679.929688 C 557.882812 668.476562 554.316406 657.027344 550.75 645.574219 C 555.03125 648.117188 558.597656 655.753906 561.808594 659.996094 C 566.800781 666.355469 572.148438 672.71875 576.785156 679.503906 C 585.703125 693.078125 592.835938 705.378906 599.96875 720.222656 C 607.816406 736.765625 617.636719 763.792969 614.425781 783.304688 "/><path style=" stroke:none;fill-rule:nonzero;fill:#819c79;fill-opacity:1;" d="M 616.507812 781.308594 C 617.542969 769.734375 612.515625 759.121094 604.671875 750.859375 C 600.441406 746.398438 595.605469 742.488281 591.261719 738.128906 C 586.289062 733.132812 581.65625 727.8125 577.488281 722.128906 C 573.667969 716.925781 570.320312 711.605469 568.179688 705.484375 C 566.128906 699.628906 565.09375 693.449219 563.875 687.382812 C 560.996094 673.066406 556.496094 659.109375 552.160156 645.1875 C 551.445312 645.734375 550.730469 646.285156 550.015625 646.832031 C 554.441406 649.710938 556.832031 655.300781 559.703125 659.554688 C 563.707031 665.484375 568.6875 670.8125 572.933594 676.578125 C 581.101562 687.664062 587.992188 699.929688 594.316406 712.136719 C 599.960938 723.027344 604.839844 734.253906 608.476562 745.980469 C 612.121094 757.71875 614.921875 770.601562 613.019531 782.914062 C 612.734375 784.753906 615.546875 785.546875 615.832031 783.691406 C 617.683594 771.714844 615.375 759.484375 612.109375 747.953125 C 608.628906 735.683594 603.566406 723.941406 597.816406 712.582031 C 591.117188 699.335938 583.601562 686.167969 574.789062 674.203125 C 570.449219 668.316406 565.367188 662.898438 561.359375 656.785156 C 558.496094 652.414062 555.996094 647.246094 551.488281 644.316406 C 550.417969 643.621094 548.972656 644.765625 549.34375 645.960938 C 553.582031 659.578125 557.976562 673.222656 560.867188 687.199219 C 562.066406 693.003906 563.085938 698.84375 564.800781 704.527344 C 566.628906 710.578125 569.609375 715.828125 573.148438 721.027344 C 580.363281 731.632812 589.417969 740.792969 598.875 749.398438 C 608.085938 757.777344 614.742188 768.40625 613.589844 781.308594 C 613.425781 783.179688 616.34375 783.164062 616.507812 781.308594 Z M 616.507812 781.308594 "/><path style=" stroke:none;fill-rule:nonzero;fill:#819c79;fill-opacity:1;" d="M 589.578125 834.820312 C 592.136719 806.972656 547.648438 788.34375 532.308594 768.519531 C 514.410156 744.917969 508.785156 716.59375 497.023438 690.632812 C 528.21875 709.042969 552.25 738.308594 571.679688 766.628906 C 585.488281 786.925781 589.578125 802.503906 589.578125 826.105469 "/><path style=" stroke:none;fill-rule:nonzero;fill:#819c79;fill-opacity:1;" d="M 591.421875 834.820312 C 592.28125 823.988281 586.425781 814.640625 579.328125 806.988281 C 570.941406 797.941406 560.652344 790.808594 550.960938 783.257812 C 546.460938 779.75 542.019531 776.140625 537.972656 772.117188 C 532.882812 767.058594 529.003906 760.894531 525.46875 754.691406 C 517.066406 739.945312 511.863281 723.667969 505.972656 707.828125 C 503.703125 701.714844 501.292969 695.652344 498.617188 689.703125 C 497.777344 690.542969 496.933594 691.382812 496.09375 692.222656 C 521.160156 707.128906 541.394531 728.671875 558.804688 751.804688 C 567.074219 762.789062 575.363281 774.085938 580.867188 786.753906 C 586.265625 799.183594 587.703125 812.679688 587.738281 826.105469 C 587.742188 828.480469 591.429688 828.480469 591.421875 826.105469 C 591.386719 812.707031 589.898438 799.46875 584.90625 786.949219 C 579.632812 773.71875 571.03125 762.074219 562.578125 750.730469 C 544.71875 726.757812 523.839844 704.433594 497.957031 689.042969 C 496.238281 688.019531 494.71875 689.976562 495.433594 691.5625 C 502.378906 707 507.25 723.257812 513.769531 738.871094 C 519.339844 752.21875 526.183594 765.910156 536.730469 776.050781 C 545.421875 784.414062 555.582031 791.15625 564.910156 798.769531 C 573.574219 805.839844 583.003906 814.121094 586.636719 825.0625 C 587.6875 828.222656 588 831.511719 587.738281 834.820312 C 587.546875 837.191406 591.234375 837.171875 591.421875 834.820312 Z M 591.421875 834.820312 "/><path style=" stroke:none;fill-rule:nonzero;fill:#819c79;fill-opacity:1;" d="M 610.878906 794.804688 C 620.785156 784.382812 635.644531 780.59375 648.027344 773.484375 C 661.894531 765.90625 671.800781 753.589844 686.65625 746.007812 C 708.945312 735.585938 733.214844 728.953125 756.492188 722.320312 C 777.789062 716.164062 799.085938 706.214844 819.886719 701.003906 C 807.011719 716.164062 788.191406 729.429688 772.339844 741.273438 C 756.988281 752.640625 741.136719 762.117188 723.308594 768.273438 C 709.4375 773.488281 696.5625 777.277344 681.703125 778.699219 C 675.265625 779.171875 669.816406 779.171875 663.875 776.800781 C 659.910156 775.855469 651.988281 772.539062 648.023438 773.484375 "/><path style=" stroke:none;fill-rule:nonzero;fill:#819c79;fill-opacity:1;" d="M 612.164062 796.089844 C 623.320312 784.636719 639.839844 780.976562 653.074219 772.597656 C 659.671875 768.417969 665.550781 763.183594 671.617188 758.296875 C 678.453125 752.792969 685.558594 748.367188 693.609375 744.867188 C 710.679688 737.441406 728.625 732.167969 746.496094 727.054688 C 755.382812 724.515625 764.21875 721.949219 772.941406 718.875 C 781.800781 715.753906 790.566406 712.359375 799.421875 709.226562 C 806.316406 706.792969 813.28125 704.554688 820.371094 702.753906 C 819.78125 701.742188 819.195312 700.730469 818.605469 699.71875 C 807.738281 712.386719 794.375 722.613281 781.054688 732.546875 C 767.785156 742.4375 754.492188 752.113281 739.617188 759.496094 C 724.476562 767.011719 707.632812 772.691406 690.984375 775.636719 C 682.585938 777.125 673.582031 778.214844 665.34375 775.425781 C 659.953125 773.601562 653.316406 770.675781 647.542969 771.734375 C 645.238281 772.15625 646.21875 775.660156 648.507812 775.238281 C 651.554688 774.679688 655.003906 776.019531 657.878906 776.898438 C 661.015625 777.859375 664.128906 778.972656 667.296875 779.804688 C 675.242188 781.882812 684.003906 780.480469 691.949219 779.140625 C 708.613281 776.332031 725.316406 770.390625 740.523438 763.085938 C 755.789062 755.75 769.355469 745.753906 782.886719 735.683594 C 796.457031 725.582031 810.113281 715.1875 821.171875 702.289062 C 822.328125 700.9375 821.25 698.785156 819.40625 699.253906 C 801.371094 703.835938 784.238281 711.246094 766.65625 717.214844 C 749.246094 723.125 731.308594 727.34375 713.890625 733.257812 C 705.367188 736.152344 696.964844 739.394531 688.746094 743.066406 C 681.234375 746.417969 674.671875 751.203125 668.296875 756.335938 C 661.949219 761.445312 655.808594 766.785156 648.785156 770.96875 C 642.019531 775 634.691406 777.9375 627.605469 781.335938 C 621.019531 784.492188 614.71875 788.261719 609.59375 793.523438 C 607.960938 795.199219 610.527344 797.769531 612.164062 796.089844 Z M 612.164062 796.089844 "/><path style=" stroke:none;fill-rule:nonzero;fill:#819c79;fill-opacity:1;" d="M 583.609375 847.140625 C 596.984375 837.664062 614.839844 836.96875 629.203125 830.335938 C 647.035156 821.335938 661.398438 808.542969 680.21875 800.488281 C 704.984375 790.066406 731.234375 782.960938 757.484375 775.855469 C 771.847656 771.59375 785.714844 766.855469 799.582031 761.644531 C 808 757.851562 816.917969 752.640625 825.832031 750.746094 C 794.132812 787.226562 750.546875 808.542969 703.992188 822.28125 C 687.648438 827.496094 670.3125 831.757812 653.472656 834.601562 C 643.570312 836.496094 627.820312 839.164062 617.914062 834.425781 "/><path style=" stroke:none;fill-rule:nonzero;fill:#819c79;fill-opacity:1;" d="M 584.527344 848.707031 C 597.859375 839.492188 614.667969 838.605469 629.273438 832.289062 C 636.949219 828.96875 644.0625 823.945312 651.035156 819.386719 C 658.121094 814.753906 665.191406 810.105469 672.667969 806.117188 C 689.042969 797.378906 707.53125 791.984375 725.261719 786.730469 C 743.429688 781.34375 761.777344 776.753906 779.738281 770.671875 C 787.640625 767.996094 795.773438 765.460938 803.324219 761.902344 C 810.828125 758.363281 818.15625 754.34375 826.3125 752.496094 C 825.726562 751.484375 825.136719 750.472656 824.546875 749.460938 C 803.441406 773.621094 776.578125 791.488281 747.4375 804.558594 C 716.066406 818.632812 682.21875 827.800781 648.421875 833.683594 C 639.035156 835.320312 627.816406 836.9375 618.832031 832.855469 C 616.714844 831.894531 614.867188 835.023438 616.996094 835.992188 C 630.105469 841.949219 645.976562 837.859375 659.464844 835.375 C 677.578125 832.039062 695.277344 827.03125 712.820312 821.476562 C 742.957031 811.9375 772.210938 798.679688 797.523438 779.558594 C 808.300781 771.414062 818.230469 762.203125 827.117188 752.03125 C 828.3125 750.660156 827.171875 748.582031 825.347656 748.996094 C 816.90625 750.902344 809.238281 755.0625 801.488281 758.765625 C 792.910156 762.863281 783.472656 765.621094 774.460938 768.617188 C 756.492188 774.589844 738.089844 779.050781 719.96875 784.519531 C 702.683594 789.734375 684.9375 795.308594 669.019531 803.957031 C 661.597656 807.988281 654.582031 812.742188 647.515625 817.351562 C 640.429688 821.976562 633.171875 826.90625 625.28125 830.042969 C 611.179688 835.652344 595.457031 836.746094 582.691406 845.570312 C 580.78125 846.894531 582.59375 850.042969 584.527344 848.707031 Z M 584.527344 848.707031 "/><path style=" stroke:none;fill-rule:nonzero;fill:#819c79;fill-opacity:1;" d="M 560.382812 894.527344 C 562.179688 860.851562 535.179688 856.964844 515.976562 836.238281 C 503.976562 823.933594 497.375 808.390625 490.171875 792.84375 C 482.972656 777.300781 470.972656 765.644531 463.171875 750.746094 C 490.171875 769.527344 517.175781 779.890625 536.980469 809.039062 C 543.578125 818.753906 550.179688 833 553.78125 844.660156 C 556.78125 853.078125 554.464844 868.472656 558.066406 876.894531 "/><path style=" stroke:none;fill-rule:nonzero;fill:#819c79;fill-opacity:1;" d="M 561.941406 894.527344 C 562.496094 882.4375 559.140625 871.53125 550.679688 862.742188 C 542.71875 854.464844 532.363281 848.851562 523.65625 841.433594 C 511.179688 830.800781 503.148438 816.929688 496.246094 802.285156 C 492.617188 794.574219 489.21875 786.914062 484.539062 779.757812 C 479.992188 772.808594 474.808594 766.292969 470.179688 759.398438 C 468.128906 756.347656 466.238281 753.203125 464.515625 749.960938 C 463.804688 750.671875 463.09375 751.378906 462.382812 752.089844 C 485.195312 767.890625 510.910156 779.691406 529.160156 801.25 C 538.867188 812.71875 545.761719 826.507812 550.792969 840.59375 C 552.976562 846.71875 553.792969 852.511719 554.066406 858.992188 C 554.320312 865.070312 554.257812 871.574219 556.5625 877.308594 C 557.300781 879.148438 560.316406 878.34375 559.566406 876.480469 C 557.144531 870.449219 557.390625 863.601562 557.105469 857.21875 C 556.816406 850.707031 555.660156 844.980469 553.46875 838.847656 C 548.453125 824.800781 541.4375 811.378906 531.992188 799.804688 C 513.785156 777.484375 487.167969 765.476562 463.957031 749.398438 C 462.59375 748.457031 461.136719 750.242188 461.824219 751.53125 C 469.679688 766.308594 481.664062 778.441406 488.828125 793.628906 C 495.964844 808.765625 502.574219 824.207031 514.160156 836.597656 C 522.484375 845.5 532.691406 851.800781 542.171875 859.316406 C 551.660156 866.832031 557.996094 876.054688 558.820312 888.394531 C 558.957031 890.4375 558.914062 892.484375 558.820312 894.527344 C 558.730469 896.539062 561.847656 896.53125 561.941406 894.527344 Z M 561.941406 894.527344 "/><path style=" stroke:none;fill-rule:nonzero;fill:#819c79;fill-opacity:1;" d="M 551.445312 925.085938 C 567.789062 914.425781 581.90625 906.609375 596.019531 894.527344 C 613.109375 880.316406 634.652344 871.078125 656.199219 864.683594 C 678.484375 858.289062 700.773438 853.3125 723.058594 847.628906 C 744.605469 841.230469 764.664062 827.730469 786.210938 822.753906 C 775.808594 840.523438 749.804688 854.734375 732.71875 866.816406 C 714.144531 879.605469 692.601562 890.265625 670.3125 896.660156 C 653.226562 901.636719 635.394531 901.636719 618.308594 905.1875 C 604.9375 908.742188 588.949219 910.386719 575.578125 909.675781 "/><path style=" stroke:none;fill-rule:nonzero;fill:#819c79;fill-opacity:1;" d="M 552.363281 926.65625 C 566.714844 917.316406 581.566406 908.722656 594.863281 897.863281 C 608.578125 886.65625 623.539062 878.261719 640.109375 871.980469 C 657.589844 865.347656 675.957031 861.117188 694.078125 856.664062 C 703.527344 854.34375 712.980469 852.058594 722.410156 849.667969 C 730.699219 847.566406 738.660156 843.941406 746.421875 840.429688 C 759.585938 834.476562 772.554688 827.859375 786.691406 824.507812 C 786.007812 823.617188 785.324219 822.730469 784.640625 821.839844 C 777.019531 834.585938 764.027344 843.542969 751.96875 851.71875 C 738.886719 860.585938 725.871094 869.804688 712.007812 877.417969 C 696.117188 886.148438 678.839844 893.347656 661.046875 897.058594 C 651.675781 899.015625 642.109375 899.851562 632.625 901.058594 C 623.914062 902.167969 615.5 904.285156 606.875 905.828125 C 596.585938 907.671875 586.019531 908.371094 575.578125 907.859375 C 573.234375 907.746094 573.246094 911.378906 575.578125 911.492188 C 584.117188 911.910156 592.660156 911.441406 601.132812 910.351562 C 609.691406 909.25 617.964844 906.90625 626.472656 905.558594 C 635.699219 904.097656 645.019531 903.320312 654.257812 901.929688 C 663.417969 900.554688 672.277344 898.183594 681.023438 895.164062 C 697.699219 889.414062 713.605469 881.417969 728.417969 871.867188 C 741.0625 863.71875 753.859375 855.371094 765.84375 846.277344 C 774.207031 839.933594 782.339844 832.765625 787.78125 823.671875 C 788.625 822.257812 787.246094 820.644531 785.726562 821.003906 C 768.882812 825 753.632812 833.503906 737.828125 840.277344 C 720.351562 847.769531 701.292969 851.085938 682.914062 855.6875 C 665.351562 860.085938 647.734375 864.597656 631.042969 871.722656 C 623.164062 875.082031 615.527344 878.941406 608.253906 883.46875 C 600.941406 888.027344 594.574219 893.660156 587.765625 898.886719 C 575.949219 907.953125 562.992188 915.40625 550.53125 923.515625 C 548.574219 924.789062 550.390625 927.9375 552.363281 926.65625 Z M 552.363281 926.65625 "/><path style=" stroke:none;fill-rule:nonzero;fill:#819c79;fill-opacity:1;" d="M 537.328125 956.351562 C 534.046875 939.144531 524.199219 930.863281 509.75 923.214844 C 495.960938 915.566406 482.171875 902.183594 472.324219 890.714844 C 447.371094 861.398438 433.582031 823.160156 402.722656 798.941406 C 441.460938 803.402344 470.355469 837.179688 491.367188 864.585938 C 500.558594 877.96875 512.378906 891.351562 519.601562 906.007812 C 524.199219 914.292969 525.894531 935.707031 532.464844 942.71875 "/><path style=" stroke:none;fill-rule:nonzero;fill:#819c79;fill-opacity:1;" d="M 538.890625 955.921875 C 536.277344 942.8125 528.867188 933.109375 517.734375 925.945312 C 510.953125 921.582031 503.914062 918.023438 497.523438 913.011719 C 490.722656 907.671875 484.480469 901.625 478.589844 895.308594 C 457.210938 872.375 444.25 843.371094 424.832031 818.957031 C 418.632812 811.164062 411.679688 803.988281 403.867188 797.800781 C 403.484375 798.71875 403.101562 799.640625 402.722656 800.558594 C 433.070312 804.238281 456.988281 825.863281 476.09375 848.148438 C 486.34375 860.109375 495.519531 872.9375 504.824219 885.632812 C 509.90625 892.5625 514.398438 899.699219 518.445312 907.273438 C 521.15625 912.351562 522.085938 918.585938 523.449219 924.121094 C 525.082031 930.765625 526.621094 938.597656 531.320312 943.859375 C 532.710938 945.421875 534.988281 943.125 533.605469 941.574219 C 529.820312 937.332031 528.519531 930.902344 527.144531 925.554688 C 525.636719 919.707031 524.503906 913.691406 522.308594 908.042969 C 519.566406 900.996094 515.015625 894.46875 510.707031 888.304688 C 505.683594 881.117188 500.230469 874.238281 495.113281 867.113281 C 478.554688 844.0625 458.773438 820.957031 433.5 807.238281 C 423.933594 802.046875 413.53125 798.636719 402.722656 797.328125 C 401.363281 797.160156 400.511719 799.242188 401.578125 800.085938 C 426.460938 819.789062 440.484375 848.730469 458.015625 874.441406 C 467.078125 887.730469 477.535156 899.921875 489.597656 910.589844 C 495.757812 916.03125 502.421875 921.140625 509.691406 925.015625 C 515.554688 928.140625 521.183594 931.75 525.832031 936.535156 C 531.25 942.109375 534.269531 949.246094 535.769531 956.78125 C 536.175781 958.828125 539.296875 957.960938 538.890625 955.921875 Z M 538.890625 955.921875 "/><path style=" stroke:none;fill-rule:nonzero;fill:#819c79;fill-opacity:1;" d="M 524.800781 1005.917969 C 538.914062 993.125 557.390625 988.332031 570.761719 975.539062 C 586.363281 961.328125 600.480469 950.667969 620.539062 941.429688 C 664.371094 919.402344 712.660156 907.320312 755.75 884.582031 C 723.804688 915.847656 688.886719 949.957031 645.054688 967.011719 C 618.308594 976.960938 592.304688 976.960938 564.074219 981.226562 "/><path style=" stroke:none;fill-rule:nonzero;fill:#819c79;fill-opacity:1;" d="M 526.085938 1007.199219 C 538.261719 996.34375 554.09375 991.140625 566.90625 981.203125 C 573.332031 976.222656 579.101562 970.402344 585.441406 965.292969 C 591.730469 960.222656 598.371094 955.601562 605.304688 951.457031 C 620.585938 942.3125 637.351562 935.195312 653.824219 928.507812 C 670.644531 921.683594 687.738281 915.558594 704.679688 909.042969 C 722.359375 902.242188 739.886719 894.964844 756.667969 886.148438 C 755.933594 885.199219 755.199219 884.246094 754.464844 883.296875 C 730.964844 906.296875 707.203125 929.402344 679.425781 947.265625 C 665.019531 956.53125 649.527344 964.355469 632.996094 969 C 615.550781 973.898438 597.398438 975.339844 579.46875 977.398438 C 574.167969 978.003906 568.871094 978.683594 563.59375 979.472656 C 561.28125 979.816406 562.265625 983.316406 564.558594 982.976562 C 582.402344 980.3125 600.457031 979.21875 618.230469 976.050781 C 635.371094 972.996094 651.40625 967.15625 666.734375 958.960938 C 695.695312 943.480469 720.441406 921.25 743.945312 898.613281 C 748.332031 894.386719 752.683594 890.125 757.035156 885.863281 C 758.550781 884.382812 756.628906 882.070312 754.832031 883.011719 C 722.527344 899.988281 687.632812 911.019531 653.867188 924.597656 C 637.601562 931.140625 621.269531 938.195312 606 946.847656 C 592.097656 954.722656 579.839844 964.867188 568.050781 975.574219 C 554.832031 987.582031 536.886719 992.710938 523.515625 1004.632812 C 521.761719 1006.195312 524.34375 1008.753906 526.085938 1007.199219 Z M 526.085938 1007.199219 "/><path style=" stroke:none;fill-rule:nonzero;fill:#819c79;fill-opacity:1;" d="M 519.5 1023.863281 C 513.742188 1006.15625 509.90625 994.078125 491.675781 983.613281 C 472.484375 972.347656 453.292969 962.6875 439.863281 946.589844 C 423.550781 928.878906 412.035156 909.5625 399.5625 890.242188 C 387.089844 873.335938 374.613281 860.457031 360.222656 845.96875 C 396.683594 872.53125 439.863281 884.605469 468.644531 920.828125 C 479.199219 934.511719 490.714844 949.003906 498.390625 964.296875 C 503.1875 974.761719 504.414062 991.214844 510.171875 1000.875 "/><path style=" stroke:none;fill-rule:nonzero;fill:#819c79;fill-opacity:1;" d="M 521.617188 1023.277344 C 517.78125 1011.46875 513.875 999.648438 504.871094 990.675781 C 499.558594 985.378906 492.9375 981.78125 486.496094 978.066406 C 479.160156 973.84375 471.804688 969.648438 464.71875 965.015625 C 449.902344 955.328125 438.273438 942.539062 427.695312 928.457031 C 416.898438 914.074219 408.425781 898.039062 397.449219 883.832031 C 386.589844 869.777344 374.273438 857.003906 361.777344 844.417969 C 360.890625 845.566406 360 846.714844 359.113281 847.867188 C 384.125 865.996094 413.019531 877.757812 438.242188 895.550781 C 444.613281 900.046875 450.640625 905.007812 456.253906 910.425781 C 462.332031 916.292969 467.492188 922.878906 472.632812 929.5625 C 482.90625 942.914062 494.679688 957.191406 499.328125 973.652344 C 502 983.128906 503.289062 993.335938 508.273438 1001.984375 C 509.6875 1004.4375 513.488281 1002.226562 512.070312 999.765625 C 508.363281 993.335938 506.898438 985.820312 505.160156 978.6875 C 503.332031 971.191406 501.089844 964.355469 497.304688 957.605469 C 492.898438 949.75 487.683594 942.359375 482.324219 935.128906 C 477.230469 928.257812 472.109375 921.304688 466.503906 914.84375 C 446.214844 891.457031 417.972656 877.753906 391.425781 862.90625 C 381.089844 857.125 370.925781 851.027344 361.332031 844.074219 C 359.261719 842.574219 356.957031 845.800781 358.667969 847.523438 C 371.160156 860.101562 383.46875 872.871094 394.320312 886.914062 C 399.824219 894.035156 404.363281 901.871094 409.253906 909.414062 C 414.132812 916.941406 419.167969 924.367188 424.554688 931.542969 C 434.75 945.117188 445.976562 957.507812 460.023438 967.152344 C 466.96875 971.921875 474.296875 976.117188 481.59375 980.316406 C 488.390625 984.230469 495.433594 987.863281 501.210938 993.25 C 510.105469 1001.542969 513.730469 1013.222656 517.382812 1024.449219 C 518.253906 1027.128906 522.496094 1025.980469 521.617188 1023.277344 Z M 521.617188 1023.277344 "/><path style=" stroke:none;fill-rule:nonzero;fill:#819c79;fill-opacity:1;" d="M 661.398438 677.511719 C 663.378906 668.035156 657.929688 655.71875 650.996094 650.507812 C 641.089844 642.925781 634.652344 632.976562 628.214844 622.554688 C 620.289062 610.238281 615.832031 598.394531 610.382812 584.65625 C 604.441406 570.441406 595.523438 557.175781 589.582031 543.4375 C 599.488281 545.332031 610.382812 557.175781 618.308594 563.335938 C 629.203125 571.863281 638.117188 583.234375 642.078125 596.023438 C 648.023438 614.5 647.035156 634.871094 654.460938 652.875 "/><path style=" stroke:none;fill-rule:nonzero;fill:#819c79;fill-opacity:1;" d="M 663.148438 677.992188 C 665.054688 667.746094 660.507812 655.675781 652.28125 649.222656 C 641.660156 640.890625 634.429688 629.476562 627.558594 618.042969 C 620.46875 606.25 616.222656 593.28125 610.667969 580.777344 C 604.847656 567.679688 596.898438 555.652344 591.148438 542.523438 C 590.464844 543.410156 589.78125 544.300781 589.097656 545.191406 C 598.660156 547.246094 606.234375 555.445312 613.363281 561.601562 C 617.257812 564.960938 621.316406 568.039062 624.945312 571.699219 C 628.890625 575.675781 632.300781 580.140625 635.167969 584.949219 C 647.480469 605.582031 643.875 631.445312 652.710938 653.359375 C 653.574219 655.5 657.089844 654.566406 656.214844 652.390625 C 647.09375 629.773438 650.570312 603.667969 637.820312 582.300781 C 632.019531 572.578125 623.726562 565.757812 615.292969 558.476562 C 607.878906 552.078125 600.003906 543.824219 590.0625 541.6875 C 588.398438 541.328125 587.375 542.898438 588.011719 544.355469 C 593.472656 556.828125 600.820312 568.347656 606.628906 580.652344 C 612.339844 592.742188 616.332031 605.460938 622.867188 617.191406 C 628.800781 627.851562 635.683594 638.675781 644.4375 647.246094 C 648.617188 651.339844 653.078125 654.199219 656.078125 659.378906 C 659.085938 664.570312 660.753906 671.0625 659.644531 677.027344 C 659.21875 679.316406 662.722656 680.292969 663.148438 677.992188 Z M 663.148438 677.992188 "/></g></svg>