<svg xmlns="http://www.w3.org/2000/svg" xmlns:xlink="http://www.w3.org/1999/xlink" width="1587" zoomAndPan="magnify" viewBox="0 0 1190.25 1683.749949" height="2245" preserveAspectRatio="xMidYMid meet" version="1.2"><defs><clipPath id="a943e61204"><path d="M 659 505.222656 L 805 505.222656 L 805 1170 L 659 1170 Z M 659 505.222656 "/></clipPath><clipPath id="5fbbaa893b"><path d="M 698 961 L 820.304688 961 L 820.304688 1167 L 698 1167 Z M 698 961 "/></clipPath><clipPath id="b1b48161ab"><path d="M 369.835938 1014 L 516 1014 L 516 1159 L 369.835938 1159 Z M 369.835938 1014 "/></clipPath><clipPath id="105d3dce75"><path d="M 478 922 L 569 922 L 569 1178.296875 L 478 1178.296875 Z M 478 922 "/></clipPath></defs><g id="da86a30005"><g clip-rule="nonzero" clip-path="url(#a943e61204)"><path style=" stroke:none;fill-rule:evenodd;fill:#558629;fill-opacity:1;" d="M 660.429688 1161.882812 C 651.71875 1107.003906 706.175781 666.628906 804.757812 505.386719 C 716.453125 746.601562 701.835938 959.765625 696.511719 1169.390625 C 686.273438 1162.710938 674.648438 1159.269531 660.429688 1161.882812 Z M 660.429688 1161.882812 "/></g><path style=" stroke:none;fill-rule:evenodd;fill:#447821;fill-opacity:1;" d="M 586.933594 1167.164062 C 584.476562 1162.769531 585.136719 1158.738281 583.183594 1145.34375 C 572.128906 1069.445312 573.425781 869.050781 634.820312 770.074219 C 584.128906 929.789062 600.816406 1046.804688 626 1168.121094 C 610.421875 1166.796875 597.351562 1163.242188 586.933594 1167.164062 Z M 586.933594 1167.164062 "/><g clip-rule="nonzero" clip-path="url(#5fbbaa893b)"><path style=" stroke:none;fill-rule:evenodd;fill:#447821;fill-opacity:1;" d="M 820.292969 962.5625 C 751.195312 964.953125 727.550781 1079.234375 716.730469 1166.191406 C 706.863281 1159.816406 705.054688 1162.660156 698.292969 1162.863281 C 708.894531 1081.03125 738.691406 948.6875 820.292969 962.550781 Z M 820.292969 962.5625 "/></g><path style=" stroke:none;fill-rule:evenodd;fill:#5aa02c;fill-opacity:1;" d="M 656.554688 1166.34375 C 656.554688 1166.34375 607.507812 714.179688 769.3125 721.242188 C 645.621094 759.6875 659.90625 1066.851562 680.609375 1168.625 C 673.835938 1164.757812 665.992188 1163.5625 656.554688 1166.34375 Z M 656.554688 1166.34375 "/><path style=" stroke:none;fill-rule:evenodd;fill:#5aa02c;fill-opacity:1;" d="M 673.695312 1172.289062 C 664.984375 1139.878906 719.441406 879.84375 818.023438 784.628906 C 729.71875 927.066406 715.101562 1052.941406 709.777344 1176.722656 C 697.75 1172.714844 685.722656 1169.722656 673.695312 1172.289062 Z M 673.695312 1172.289062 "/><path style=" stroke:none;fill-rule:evenodd;fill:#5aa02c;fill-opacity:1;" d="M 573.570312 1173.167969 C 573.570312 1173.167969 622.617188 805.078125 460.8125 810.828125 C 584.503906 842.125 570.222656 1092.175781 549.515625 1175.023438 C 555.886719 1170.292969 564.574219 1171.339844 573.570312 1173.167969 Z M 573.570312 1173.167969 "/><g clip-rule="nonzero" clip-path="url(#b1b48161ab)"><path style=" stroke:none;fill-rule:evenodd;fill:#558629;fill-opacity:1;" d="M 514.167969 1156.796875 C 523.199219 1143.921875 469.328125 995.179688 369.835938 1016.753906 C 471.648438 1033.121094 473.304688 1112.265625 478.082031 1158.398438 C 489.507812 1154.242188 501.414062 1152.984375 514.167969 1156.796875 Z M 514.167969 1156.796875 "/></g><path style=" stroke:none;fill-rule:evenodd;fill:#447821;fill-opacity:1;" d="M 527.234375 1161.910156 C 535.582031 1129.503906 483.375 869.46875 388.859375 774.253906 C 473.519531 916.691406 487.535156 1042.5625 492.640625 1166.347656 C 502.621094 1162.039062 512.300781 1157.183594 527.234375 1161.910156 Z M 527.234375 1161.910156 "/><path style=" stroke:none;fill-rule:evenodd;fill:#5aa02c;fill-opacity:1;" d="M 389.199219 967.148438 C 458.238281 970.773438 479.832031 1085.457031 489.097656 1172.59375 C 497.371094 1167.175781 499.84375 1166.757812 507.589844 1169.597656 C 498.453125 1087.585938 471.035156 954.734375 389.195312 967.136719 Z M 389.199219 967.148438 "/><path style=" stroke:none;fill-rule:evenodd;fill:#5aa02c;fill-opacity:1;" d="M 546.699219 1170.414062 C 549.832031 1054.730469 524.785156 768.40625 427.28125 618.539062 C 524.136719 829.050781 519.808594 1002.613281 524.621094 1172.050781 Z M 546.699219 1170.414062 "/><g clip-rule="nonzero" clip-path="url(#105d3dce75)"><path style=" stroke:none;fill-rule:evenodd;fill:#447821;fill-opacity:1;" d="M 567.625 1175.238281 C 573.003906 1154.128906 539.363281 984.746094 478.457031 922.726562 C 533.011719 1015.503906 542.042969 1097.5 545.332031 1178.128906 C 552.761719 1174.285156 560.195312 1173.769531 567.625 1175.238281 Z M 567.625 1175.238281 "/></g><path style=" stroke:none;fill-rule:evenodd;fill:#447821;fill-opacity:1;" d="M 699.332031 873.207031 C 631.539062 891.199219 626.753906 1045.988281 630.1875 1162.230469 C 621.136719 1162.058594 618.628906 1162 611.453125 1161.835938 C 608.636719 1052.355469 616.558594 872.582031 699.332031 873.1875 Z M 699.332031 873.207031 "/><path style=" stroke:none;fill-rule:evenodd;fill:#447821;fill-opacity:1;" d="M 625.285156 1170.972656 C 614.503906 1159.519531 646.578125 1004.617188 748.132812 1011.78125 C 649.703125 1042.5 659.367188 1121.070312 661.226562 1167.414062 C 648.449219 1164.617188 636.742188 1167.179688 625.285156 1170.972656 Z M 625.285156 1170.972656 "/><path style=" stroke:none;fill-rule:evenodd;fill:#558629;fill-opacity:1;" d="M 503.28125 974.316406 C 571.074219 986.695312 575.859375 1093.167969 572.425781 1173.125 C 582.546875 1169.046875 593.585938 1168.996094 600.644531 1169.859375 C 601.332031 1151.464844 591.894531 1133.179688 590.367188 1111.527344 C 585.640625 1044.539062 565.835938 973.992188 503.28125 974.308594 Z M 503.28125 974.316406 "/><path style=" stroke:none;fill-rule:evenodd;fill:#5aa02c;fill-opacity:1;" d="M 535.09375 943.835938 C 594.460938 957.390625 598.648438 1086.886719 595.644531 1174.449219 C 603.570312 1169.675781 605.765625 1172.570312 612.046875 1174.152344 C 614.515625 1091.683594 607.578125 943.363281 535.09375 943.824219 Z M 535.09375 943.835938 "/></g></svg>